<?xml version="1.0" encoding="UTF-8"?>
<!DOCTYPE svg PUBLIC "-//W3C//DTD SVG 1.1//EN" "http://www.w3.org/Graphics/SVG/1.1/DTD/svg11.dtd">
<svg xmlns="http://www.w3.org/2000/svg" version="1.1" width="382px" height="112px" style="shape-rendering:geometricPrecision; text-rendering:geometricPrecision; image-rendering:optimizeQuality; fill-rule:evenodd; clip-rule:evenodd" xmlns:xlink="http://www.w3.org/1999/xlink">
<g><path style="opacity:1" fill="#f8f8f8" d="M -0.5,-0.5 C 126.833,-0.5 254.167,-0.5 381.5,-0.5C 381.5,36.8333 381.5,74.1667 381.5,111.5C 254.167,111.5 126.833,111.5 -0.5,111.5C -0.5,74.1667 -0.5,36.8333 -0.5,-0.5 Z"/></g>
<g><path style="opacity:1" fill="#181818" d="M 4.5,5.5 C 129.332,4.50045 254.332,4.16711 379.5,4.5C 379.832,39.0041 379.498,73.3374 378.5,107.5C 378.5,73.5 378.5,39.5 378.5,5.5C 253.833,5.5 129.167,5.5 4.5,5.5 Z"/></g>
<g><path style="opacity:1" fill="#000000" d="M 4.5,5.5 C 129.167,5.5 253.833,5.5 378.5,5.5C 378.5,39.5 378.5,73.5 378.5,107.5C 253.833,107.5 129.167,107.5 4.5,107.5C 4.5,73.5 4.5,39.5 4.5,5.5 Z"/></g>
<g><path style="opacity:1" fill="#bebfbe" d="M 375.5,104.5 C 375.5,72.5 375.5,40.5 375.5,8.5C 253.167,8.5 130.833,8.5 8.5,8.5C 8.5,40.5 8.5,72.5 8.5,104.5C 7.50176,72.3376 7.16842,40.0043 7.5,7.5C 130.5,7.5 253.5,7.5 376.5,7.5C 376.832,40.0043 376.498,72.3376 375.5,104.5 Z"/></g>
<g><path style="opacity:1" fill="#fdfdfc" d="M 375.5,104.5 C 253.167,104.5 130.833,104.5 8.5,104.5C 8.5,72.5 8.5,40.5 8.5,8.5C 130.833,8.5 253.167,8.5 375.5,8.5C 375.5,40.5 375.5,72.5 375.5,104.5 Z"/></g>
<g><path style="opacity:1" fill="#010001" d="M 191.5,14.5 C 191.5,42.1667 191.5,69.8333 191.5,97.5C 132.5,97.5 73.5,97.5 14.5,97.5C 14.5,69.8333 14.5,42.1667 14.5,14.5C 73.5,14.5 132.5,14.5 191.5,14.5 Z"/></g>
<g><path style="opacity:1" fill="#e7e9e8" d="M 51.5,41.5 C 57.2617,41.1493 62.9284,41.6493 68.5,43C 74.5518,49.9803 73.5518,55.647 65.5,60C 62.1832,60.4983 58.8499,60.665 55.5,60.5C 55.5,63.5 55.5,66.5 55.5,69.5C 54.1667,69.5 52.8333,69.5 51.5,69.5C 51.5,60.1667 51.5,50.8333 51.5,41.5 Z"/></g>
<g><path style="opacity:1" fill="#eff4f5" d="M 96.5,53.5 C 96.5,54.5 96.5,55.5 96.5,56.5C 92.5,56.5 88.5,56.5 84.5,56.5C 84.1872,60.0419 84.5206,63.3752 85.5,66.5C 89.8333,66.5 94.1667,66.5 98.5,66.5C 98.5,67.5 98.5,68.5 98.5,69.5C 92.5,69.5 86.5,69.5 80.5,69.5C 80.5,60.1667 80.5,50.8333 80.5,41.5C 86.5,41.5 92.5,41.5 98.5,41.5C 98.5,42.5 98.5,43.5 98.5,44.5C 93.8333,44.5 89.1667,44.5 84.5,44.5C 84.5,47.5 84.5,50.5 84.5,53.5C 88.5,53.5 92.5,53.5 96.5,53.5 Z"/></g>
<g><path style="opacity:1" fill="#e7e2e1" d="M 107.5,41.5 C 113.5,41.5 119.5,41.5 125.5,41.5C 125.5,42.5 125.5,43.5 125.5,44.5C 121.167,44.5 116.833,44.5 112.5,44.5C 112.5,47.5 112.5,50.5 112.5,53.5C 116.5,53.5 120.5,53.5 124.5,53.5C 124.5,54.8333 124.5,56.1667 124.5,57.5C 120.5,57.5 116.5,57.5 112.5,57.5C 112.5,60.5 112.5,63.5 112.5,66.5C 116.833,66.5 121.167,66.5 125.5,66.5C 125.5,67.5 125.5,68.5 125.5,69.5C 119.5,69.5 113.5,69.5 107.5,69.5C 107.5,60.1667 107.5,50.8333 107.5,41.5 Z"/></g>
<g><path style="opacity:1" fill="#efeae0" d="M 135.5,41.5 C 140.511,41.3341 145.511,41.5007 150.5,42C 155.945,44.1102 157.778,47.9436 156,53.5C 154.691,55.9757 152.858,57.9757 150.5,59.5C 152.375,62.7511 154.375,65.9177 156.5,69C 154.833,69.6667 153.167,69.6667 151.5,69C 149.5,66 147.5,63 145.5,60C 143.527,59.5045 141.527,59.3379 139.5,59.5C 139.5,62.8333 139.5,66.1667 139.5,69.5C 138.167,69.5 136.833,69.5 135.5,69.5C 135.5,60.1667 135.5,50.8333 135.5,41.5 Z"/></g>
<g><path style="opacity:1" fill="#100b0d" d="M 239.5,50.5 C 236.721,50.7214 234.054,50.388 231.5,49.5C 229.162,46.7569 227.162,46.9235 225.5,50C 225.645,50.772 225.978,51.4387 226.5,52C 230.879,53.023 234.879,54.8563 238.5,57.5C 238.833,59.1667 239.167,60.8333 239.5,62.5C 239.961,67.5455 237.628,70.3789 232.5,71C 224.14,72.8325 219.14,69.6659 217.5,61.5C 220.167,61.5 222.833,61.5 225.5,61.5C 225.085,63.9477 226.085,65.2811 228.5,65.5C 231.779,65.2528 232.779,63.7528 231.5,61C 226.579,59.8669 222.246,57.7002 218.5,54.5C 216.307,46.6798 219.307,42.3465 227.5,41.5C 234.2,41.1599 238.2,44.1599 239.5,50.5 Z"/></g>
<g><path style="opacity:1" fill="#13020d" d="M 244.5,42.5 C 247.167,42.5 249.833,42.5 252.5,42.5C 252.5,45.8333 252.5,49.1667 252.5,52.5C 255.5,52.5 258.5,52.5 261.5,52.5C 261.5,49.1667 261.5,45.8333 261.5,42.5C 264.167,42.5 266.833,42.5 269.5,42.5C 269.5,51.8333 269.5,61.1667 269.5,70.5C 266.833,70.5 264.167,70.5 261.5,70.5C 261.5,66.8333 261.5,63.1667 261.5,59.5C 258.5,59.5 255.5,59.5 252.5,59.5C 252.5,63.1667 252.5,66.8333 252.5,70.5C 249.833,70.5 247.167,70.5 244.5,70.5C 244.5,61.1667 244.5,51.8333 244.5,42.5 Z"/></g>
<g><path style="opacity:1" fill="#0f0d13" d="M 283.5,42.5 C 286.5,42.5 289.5,42.5 292.5,42.5C 295.378,51.6847 298.711,60.6847 302.5,69.5C 299.894,70.6517 297.227,70.8184 294.5,70C 293.663,68.9887 293.33,67.8221 293.5,66.5C 289.833,66.5 286.167,66.5 282.5,66.5C 282.67,67.8221 282.337,68.9887 281.5,70C 278.854,70.4974 276.187,70.6641 273.5,70.5C 277.021,61.2731 280.354,51.9398 283.5,42.5 Z"/></g>
<g><path style="opacity:1" fill="#09060b" d="M 306.5,42.5 C 311.844,42.334 317.177,42.5006 322.5,43C 329.011,44.8823 331.178,49.0489 329,55.5C 328.464,57.8689 327.297,59.8689 325.5,61.5C 327.143,64.4451 328.476,67.4451 329.5,70.5C 326.5,70.5 323.5,70.5 320.5,70.5C 320.423,65.5983 318.09,62.9316 313.5,62.5C 313.5,65.1667 313.5,67.8333 313.5,70.5C 311.167,70.5 308.833,70.5 306.5,70.5C 306.5,61.1667 306.5,51.8333 306.5,42.5 Z"/></g>
<g><path style="opacity:1" fill="#010002" d="M 353.5,42.5 C 353.5,44.5 353.5,46.5 353.5,48.5C 349.833,48.5 346.167,48.5 342.5,48.5C 342.5,50.1667 342.5,51.8333 342.5,53.5C 345.833,53.5 349.167,53.5 352.5,53.5C 352.5,55.5 352.5,57.5 352.5,59.5C 349.5,59.5 346.5,59.5 343.5,59.5C 342.549,60.9187 342.216,62.5853 342.5,64.5C 346.5,64.5 350.5,64.5 354.5,64.5C 354.5,66.5 354.5,68.5 354.5,70.5C 348.167,70.5 341.833,70.5 335.5,70.5C 335.5,61.1667 335.5,51.8333 335.5,42.5C 341.5,42.5 347.5,42.5 353.5,42.5 Z"/></g>
<g><path style="opacity:1" fill="#190e0d" d="M 55.5,44.5 C 59.4565,44.0084 63.1232,44.6751 66.5,46.5C 68.8312,55.8277 65.1645,59.161 55.5,56.5C 55.5,52.5 55.5,48.5 55.5,44.5 Z"/></g>
<g><path style="opacity:1" fill="#070709" d="M 139.5,44.5 C 143.839,43.8461 147.673,44.8461 151,47.5C 151.944,50.3471 151.444,52.8471 149.5,55C 146.183,55.4983 142.85,55.665 139.5,55.5C 139.5,51.8333 139.5,48.1667 139.5,44.5 Z"/></g>
<g><path style="opacity:1" fill="#ebe9e6" d="M 313.5,49.5 C 315.857,49.3367 318.19,49.5034 320.5,50C 321.805,55.5244 319.472,57.6911 313.5,56.5C 313.5,54.1667 313.5,51.8333 313.5,49.5 Z"/></g>
<g><path style="opacity:1" fill="#7e736b" d="M 231.5,49.5 C 234.054,50.388 236.721,50.7214 239.5,50.5C 238.378,51.1558 237.045,51.4892 235.5,51.5C 233.667,51.4146 232.334,50.7479 231.5,49.5 Z"/></g>
<g><path style="opacity:1" fill="#8090a8" d="M 353.5,42.5 C 354.468,44.6074 354.802,46.9407 354.5,49.5C 350.833,49.5 347.167,49.5 343.5,49.5C 343.5,50.5 343.5,51.5 343.5,52.5C 346.833,52.5 350.167,52.5 353.5,52.5C 353.802,55.0593 353.468,57.3926 352.5,59.5C 352.5,57.5 352.5,55.5 352.5,53.5C 349.167,53.5 345.833,53.5 342.5,53.5C 342.5,51.8333 342.5,50.1667 342.5,48.5C 346.167,48.5 349.833,48.5 353.5,48.5C 353.5,46.5 353.5,44.5 353.5,42.5 Z"/></g>
<g><path style="opacity:1" fill="#f3e2cc" d="M 287.5,52.5 C 289.585,54.6845 290.585,57.3511 290.5,60.5C 288.833,60.5 287.167,60.5 285.5,60.5C 285.963,57.779 286.629,55.1123 287.5,52.5 Z"/></g>
<g><path style="opacity:1" fill="#a47564" d="M 96.5,53.5 C 97.4345,54.5676 97.7678,55.901 97.5,57.5C 93.5,57.5 89.5,57.5 85.5,57.5C 85.5,60.5 85.5,63.5 85.5,66.5C 84.5206,63.3752 84.1872,60.0419 84.5,56.5C 88.5,56.5 92.5,56.5 96.5,56.5C 96.5,55.5 96.5,54.5 96.5,53.5 Z"/></g>
<g><path style="opacity:1" fill="#6c778a" d="M 343.5,59.5 C 343.5,60.8333 343.5,62.1667 343.5,63.5C 347.371,63.185 351.038,63.5184 354.5,64.5C 350.5,64.5 346.5,64.5 342.5,64.5C 342.216,62.5853 342.549,60.9187 343.5,59.5 Z"/></g>
<g><path style="opacity:1" fill="#595959" d="M 191.5,14.5 C 192.498,42.3284 192.831,70.3284 192.5,98.5C 132.998,98.8324 73.6643,98.4991 14.5,97.5C 73.5,97.5 132.5,97.5 191.5,97.5C 191.5,69.8333 191.5,42.1667 191.5,14.5 Z"/></g>
</svg>
